<svg xmlns="http://www.w3.org/2000/svg" viewBox="0 0 1640 1080" width="1640" height="1080" font-family="-apple-system, 'SF Pro Text', 'Helvetica Neue', 'Segoe UI', Arial, sans-serif">
<title>Signalbox - pair your iPhone by QR code</title>
<defs><filter id="winsh" x="-20%" y="-20%" width="140%" height="140%"><feDropShadow dx="0" dy="10" stdDeviation="18" flood-color="#000000" flood-opacity="0.20"/></filter><filter id="phsh" x="-20%" y="-20%" width="140%" height="140%"><feDropShadow dx="0" dy="14" stdDeviation="22" flood-color="#000000" flood-opacity="0.32"/></filter></defs>
<g filter="url(#winsh)">
<rect x="300" y="140" width="640" height="760" rx="12" fill="#ffffff"/>
</g>
<path d="M 300 152 a 12 12 0 0 1 12 -12 h 616 a 12 12 0 0 1 12 12 v 32 h -640 z" fill="#f2f2f4"/>
<line x1="300" y1="184" x2="940" y2="184" stroke="#e3e3e7" stroke-width="1"/>
<rect x="300.5" y="140.5" width="639" height="759" rx="11.5" fill="none" stroke="#d6d6db" stroke-width="1"/>
<circle cx="324" cy="162" r="6" fill="#FF5F57"/>
<circle cx="344" cy="162" r="6" fill="#FEBC2E"/>
<circle cx="364" cy="162" r="6" fill="#28C840"/>
<text x="620.0" y="167" font-size="14" font-weight="600" fill="#7a7a80" text-anchor="middle">Connect Phone</text>
<text x="620.0" y="288" font-size="22" font-weight="600" fill="#1c1c1e" text-anchor="middle">Scan with your iPhone camera</text>
<rect x="470.0" y="324" width="300" height="300" rx="8" fill="#ffffff" stroke="#e8e8ec" stroke-width="1"/><g fill="#111114"><rect x="482.5" y="336.5" width="77.0" height="11.0"/><rect x="581.5" y="336.5" width="44.0" height="11.0"/><rect x="636.5" y="336.5" width="11.0" height="11.0"/><rect x="680.5" y="336.5" width="77.0" height="11.0"/><rect x="482.5" y="347.5" width="11.0" height="11.0"/><rect x="548.5" y="347.5" width="11.0" height="11.0"/><rect x="570.5" y="347.5" width="11.0" height="11.0"/><rect x="592.5" y="347.5" width="33.0" height="11.0"/><rect x="680.5" y="347.5" width="11.0" height="11.0"/><rect x="746.5" y="347.5" width="11.0" height="11.0"/><rect x="482.5" y="358.5" width="11.0" height="11.0"/><rect x="504.5" y="358.5" width="33.0" height="11.0"/><rect x="548.5" y="358.5" width="11.0" height="11.0"/><rect x="581.5" y="358.5" width="11.0" height="11.0"/><rect x="603.5" y="358.5" width="33.0" height="11.0"/><rect x="647.5" y="358.5" width="11.0" height="11.0"/><rect x="680.5" y="358.5" width="11.0" height="11.0"/><rect x="702.5" y="358.5" width="33.0" height="11.0"/><rect x="746.5" y="358.5" width="11.0" height="11.0"/><rect x="482.5" y="369.5" width="11.0" height="11.0"/><rect x="504.5" y="369.5" width="33.0" height="11.0"/><rect x="548.5" y="369.5" width="11.0" height="11.0"/><rect x="592.5" y="369.5" width="11.0" height="11.0"/><rect x="636.5" y="369.5" width="33.0" height="11.0"/><rect x="680.5" y="369.5" width="11.0" height="11.0"/><rect x="702.5" y="369.5" width="33.0" height="11.0"/><rect x="746.5" y="369.5" width="11.0" height="11.0"/><rect x="482.5" y="380.5" width="11.0" height="11.0"/><rect x="504.5" y="380.5" width="33.0" height="11.0"/><rect x="548.5" y="380.5" width="11.0" height="11.0"/><rect x="570.5" y="380.5" width="11.0" height="11.0"/><rect x="592.5" y="380.5" width="11.0" height="11.0"/><rect x="614.5" y="380.5" width="33.0" height="11.0"/><rect x="680.5" y="380.5" width="11.0" height="11.0"/><rect x="702.5" y="380.5" width="33.0" height="11.0"/><rect x="746.5" y="380.5" width="11.0" height="11.0"/><rect x="482.5" y="391.5" width="11.0" height="11.0"/><rect x="548.5" y="391.5" width="11.0" height="11.0"/><rect x="603.5" y="391.5" width="22.0" height="11.0"/><rect x="636.5" y="391.5" width="11.0" height="11.0"/><rect x="658.5" y="391.5" width="11.0" height="11.0"/><rect x="680.5" y="391.5" width="11.0" height="11.0"/><rect x="746.5" y="391.5" width="11.0" height="11.0"/><rect x="482.5" y="402.5" width="77.0" height="11.0"/><rect x="570.5" y="402.5" width="11.0" height="11.0"/><rect x="592.5" y="402.5" width="11.0" height="11.0"/><rect x="614.5" y="402.5" width="11.0" height="11.0"/><rect x="636.5" y="402.5" width="11.0" height="11.0"/><rect x="658.5" y="402.5" width="11.0" height="11.0"/><rect x="680.5" y="402.5" width="77.0" height="11.0"/><rect x="603.5" y="413.5" width="11.0" height="11.0"/><rect x="658.5" y="413.5" width="11.0" height="11.0"/><rect x="493.5" y="424.5" width="33.0" height="11.0"/><rect x="548.5" y="424.5" width="55.0" height="11.0"/><rect x="625.5" y="424.5" width="11.0" height="11.0"/><rect x="647.5" y="424.5" width="33.0" height="11.0"/><rect x="691.5" y="424.5" width="11.0" height="11.0"/><rect x="724.5" y="424.5" width="11.0" height="11.0"/><rect x="482.5" y="435.5" width="11.0" height="11.0"/><rect x="504.5" y="435.5" width="11.0" height="11.0"/><rect x="526.5" y="435.5" width="11.0" height="11.0"/><rect x="559.5" y="435.5" width="11.0" height="11.0"/><rect x="592.5" y="435.5" width="55.0" height="11.0"/><rect x="658.5" y="435.5" width="33.0" height="11.0"/><rect x="702.5" y="435.5" width="11.0" height="11.0"/><rect x="746.5" y="435.5" width="11.0" height="11.0"/><rect x="482.5" y="446.5" width="11.0" height="11.0"/><rect x="504.5" y="446.5" width="88.0" height="11.0"/><rect x="636.5" y="446.5" width="11.0" height="11.0"/><rect x="680.5" y="446.5" width="22.0" height="11.0"/><rect x="724.5" y="446.5" width="11.0" height="11.0"/><rect x="504.5" y="457.5" width="33.0" height="11.0"/><rect x="570.5" y="457.5" width="11.0" height="11.0"/><rect x="603.5" y="457.5" width="11.0" height="11.0"/><rect x="636.5" y="457.5" width="33.0" height="11.0"/><rect x="680.5" y="457.5" width="33.0" height="11.0"/><rect x="746.5" y="457.5" width="11.0" height="11.0"/><rect x="482.5" y="468.5" width="33.0" height="11.0"/><rect x="526.5" y="468.5" width="11.0" height="11.0"/><rect x="548.5" y="468.5" width="11.0" height="11.0"/><rect x="570.5" y="468.5" width="77.0" height="11.0"/><rect x="658.5" y="468.5" width="33.0" height="11.0"/><rect x="735.5" y="468.5" width="22.0" height="11.0"/><rect x="493.5" y="479.5" width="33.0" height="11.0"/><rect x="603.5" y="479.5" width="11.0" height="11.0"/><rect x="647.5" y="479.5" width="11.0" height="11.0"/><rect x="669.5" y="479.5" width="11.0" height="11.0"/><rect x="691.5" y="479.5" width="11.0" height="11.0"/><rect x="724.5" y="479.5" width="11.0" height="11.0"/><rect x="482.5" y="490.5" width="22.0" height="11.0"/><rect x="515.5" y="490.5" width="11.0" height="11.0"/><rect x="537.5" y="490.5" width="22.0" height="11.0"/><rect x="570.5" y="490.5" width="11.0" height="11.0"/><rect x="603.5" y="490.5" width="11.0" height="11.0"/><rect x="625.5" y="490.5" width="33.0" height="11.0"/><rect x="669.5" y="490.5" width="11.0" height="11.0"/><rect x="691.5" y="490.5" width="11.0" height="11.0"/><rect x="713.5" y="490.5" width="11.0" height="11.0"/><rect x="735.5" y="490.5" width="11.0" height="11.0"/><rect x="482.5" y="501.5" width="11.0" height="11.0"/><rect x="504.5" y="501.5" width="11.0" height="11.0"/><rect x="559.5" y="501.5" width="33.0" height="11.0"/><rect x="647.5" y="501.5" width="11.0" height="11.0"/><rect x="669.5" y="501.5" width="22.0" height="11.0"/><rect x="482.5" y="512.5" width="11.0" height="11.0"/><rect x="504.5" y="512.5" width="22.0" height="11.0"/><rect x="537.5" y="512.5" width="22.0" height="11.0"/><rect x="581.5" y="512.5" width="11.0" height="11.0"/><rect x="614.5" y="512.5" width="11.0" height="11.0"/><rect x="636.5" y="512.5" width="11.0" height="11.0"/><rect x="658.5" y="512.5" width="99.0" height="11.0"/><rect x="570.5" y="523.5" width="44.0" height="11.0"/><rect x="647.5" y="523.5" width="22.0" height="11.0"/><rect x="702.5" y="523.5" width="11.0" height="11.0"/><rect x="746.5" y="523.5" width="11.0" height="11.0"/><rect x="482.5" y="534.5" width="77.0" height="11.0"/><rect x="603.5" y="534.5" width="22.0" height="11.0"/><rect x="636.5" y="534.5" width="33.0" height="11.0"/><rect x="680.5" y="534.5" width="11.0" height="11.0"/><rect x="702.5" y="534.5" width="22.0" height="11.0"/><rect x="735.5" y="534.5" width="11.0" height="11.0"/><rect x="482.5" y="545.5" width="11.0" height="11.0"/><rect x="548.5" y="545.5" width="11.0" height="11.0"/><rect x="592.5" y="545.5" width="11.0" height="11.0"/><rect x="625.5" y="545.5" width="44.0" height="11.0"/><rect x="702.5" y="545.5" width="11.0" height="11.0"/><rect x="735.5" y="545.5" width="11.0" height="11.0"/><rect x="482.5" y="556.5" width="11.0" height="11.0"/><rect x="504.5" y="556.5" width="33.0" height="11.0"/><rect x="548.5" y="556.5" width="11.0" height="11.0"/><rect x="581.5" y="556.5" width="44.0" height="11.0"/><rect x="647.5" y="556.5" width="77.0" height="11.0"/><rect x="482.5" y="567.5" width="11.0" height="11.0"/><rect x="504.5" y="567.5" width="33.0" height="11.0"/><rect x="548.5" y="567.5" width="11.0" height="11.0"/><rect x="603.5" y="567.5" width="11.0" height="11.0"/><rect x="625.5" y="567.5" width="33.0" height="11.0"/><rect x="669.5" y="567.5" width="44.0" height="11.0"/><rect x="482.5" y="578.5" width="11.0" height="11.0"/><rect x="504.5" y="578.5" width="33.0" height="11.0"/><rect x="548.5" y="578.5" width="11.0" height="11.0"/><rect x="581.5" y="578.5" width="11.0" height="11.0"/><rect x="603.5" y="578.5" width="22.0" height="11.0"/><rect x="647.5" y="578.5" width="11.0" height="11.0"/><rect x="669.5" y="578.5" width="44.0" height="11.0"/><rect x="724.5" y="578.5" width="22.0" height="11.0"/><rect x="482.5" y="589.5" width="11.0" height="11.0"/><rect x="548.5" y="589.5" width="11.0" height="11.0"/><rect x="592.5" y="589.5" width="11.0" height="11.0"/><rect x="614.5" y="589.5" width="22.0" height="11.0"/><rect x="647.5" y="589.5" width="22.0" height="11.0"/><rect x="680.5" y="589.5" width="22.0" height="11.0"/><rect x="713.5" y="589.5" width="11.0" height="11.0"/><rect x="735.5" y="589.5" width="22.0" height="11.0"/><rect x="482.5" y="600.5" width="77.0" height="11.0"/><rect x="592.5" y="600.5" width="11.0" height="11.0"/><rect x="614.5" y="600.5" width="22.0" height="11.0"/><rect x="647.5" y="600.5" width="11.0" height="11.0"/><rect x="669.5" y="600.5" width="33.0" height="11.0"/><rect x="724.5" y="600.5" width="22.0" height="11.0"/></g>
<text x="620.0" y="666" font-size="14" fill="#8E8E93" text-anchor="middle">Open the Camera app and point it at the code,</text>
<text x="620.0" y="688" font-size="14" fill="#8E8E93" text-anchor="middle">then tap the Signalbox banner.</text>
<rect x="489.0" y="712" width="262" height="36" rx="8" fill="#f4f4f6" stroke="#e5e5ea" stroke-width="1"/>
<text x="620.0" y="735" font-family="ui-monospace, 'SF Mono', Menlo, Consolas, monospace" font-size="15" fill="#3a3a3c" text-anchor="middle">http://192.168.1.20:8377</text>
<text x="620.0" y="782" font-size="12.5" fill="#a0a0a6" text-anchor="middle">The code refreshes every 3 minutes.</text>
<g filter="url(#phsh)"><rect x="880" y="75" width="470" height="950" rx="64" fill="#000000"/></g>
<rect x="881" y="76" width="468" height="948" rx="63" fill="none" stroke="#5a5a5e" stroke-width="1.4"/>
<rect x="883" y="78" width="464" height="944" rx="61" fill="none" stroke="#2a2a2c" stroke-width="1"/>
<rect x="890" y="85" width="450" height="930" rx="54" fill="#0b0b0d"/>
<text x="948" y="124" font-size="15" font-weight="600" fill="#ffffff" text-anchor="middle">9:41</text>
<g fill="#ffffff"><g transform="translate(1262,122)" fill="none" stroke="#ffffff" stroke-width="2" stroke-linecap="round"><path d="M -7 -4 a 10.5 10.5 0 0 1 14 0"/><path d="M -4 -0.8 a 6 6 0 0 1 8 0"/></g><circle cx="1262" cy="122.6" r="1.6"/><rect x="1278" y="112" width="24" height="12" rx="3.5" fill="none" stroke="#ffffffa0" stroke-width="1.4"/><rect x="1280" y="114" width="16" height="8" rx="2" fill="#ffffff"/><rect x="1303.4" y="116" width="2" height="4" rx="1" fill="#ffffffa0"/></g>
<rect x="1055.0" y="98" width="120" height="34" rx="17" fill="#000000"/>
<text x="1115.0" y="177" font-size="19" font-weight="700" fill="#ffffff" text-anchor="middle">Signalbox</text>
<circle cx="999.0" cy="195" r="3.6" fill="#34C759"/>
<text x="1008.0" y="199" font-size="12" fill="#8E8E93">Connected to 192.168.1.20 - 1 machine</text>
<circle cx="1294" cy="179" r="23" fill="#1d1d20"/>
<g transform="translate(1294,179)" stroke="#0A84FF" stroke-width="2" fill="none" stroke-linecap="round"><path d="M -10 -5 v -3 a 2 2 0 0 1 2 -2 h 3"/><path d="M 5 -10 h 3 a 2 2 0 0 1 2 2 v 3"/><path d="M 10 5 v 3 a 2 2 0 0 1 -2 2 h -3"/><path d="M -5 10 h -3 a 2 2 0 0 1 -2 -2 v -3"/><g stroke="none" fill="#0A84FF"><rect x="-5.5" y="-5.5" width="4.4" height="4.4" rx="1"/><rect x="1.1" y="-5.5" width="4.4" height="4.4" rx="1"/><rect x="-5.5" y="1.1" width="4.4" height="4.4" rx="1"/><rect x="1.6" y="1.6" width="3.4" height="3.4" rx="1"/></g></g>
<rect x="910" y="221" width="410" height="46" rx="23" fill="#1c1c1f"/>
<g stroke="#8E8E93" stroke-width="2" fill="none" stroke-linecap="round"><circle cx="936" cy="243.0" r="6"/><line x1="940.5" y1="247.5" x2="944.5" y2="251.5"/></g>
<text x="956" y="249.0" font-size="16" fill="#8E8E93">Search, or #tag</text>
<rect x="904" y="285" width="422" height="78" rx="12" fill="#141416" stroke="#ffffff1a" stroke-width="1"/>
<circle cx="929" cy="324.0" r="5" fill="#0A84FF"/>
<g transform="translate(949.0,311.0) scale(1.6250)"><path fill="#B5B5BA" d="M8 0C3.58 0 0 3.58 0 8c0 3.54 2.29 6.53 5.47 7.59.4.07.55-.17.55-.38 0-.19-.01-.82-.01-1.49-2.01.37-2.53-.49-2.69-.94-.09-.23-.48-.94-.82-1.13-.28-.15-.68-.52-.01-.53.63-.01 1.08.58 1.23.82.72 1.21 1.87.87 2.33.66.07-.52.28-.87.51-1.07-1.78-.2-3.64-.89-3.64-3.95 0-.87.31-1.59.82-2.15-.08-.2-.36-1.02.08-2.12 0 0 .67-.21 2.2.82.64-.18 1.32-.27 2-.27s1.36.09 2 .27c1.53-1.04 2.2-.82 2.2-.82.44 1.1.16 1.92.08 2.12.51.56.82 1.27.82 2.15 0 3.07-1.87 3.75-3.65 3.95.29.25.54.73.54 1.48 0 1.07-.01 1.93-.01 2.2 0 .21.15.46.55.38A8.01 8.01 0 0 0 16 8c0-4.42-3.58-8-8-8z"/></g>
<text x="988" y="318.0" font-size="15.5" font-weight="700" fill="#EDEDED">deploy &#183; ci.yml</text>
<text x="988" y="340.0" font-size="12" fill="#8E8E93">Run #9182 succeeded in 4m 12s - site deploye...</text>
<rect x="904" y="373" width="422" height="78" rx="12" fill="#141416" stroke="#ffffff1a" stroke-width="1"/>
<circle cx="929" cy="412.0" r="5" fill="#0A84FF"/>
<text x="962" y="412.0" font-family="ui-monospace, 'SF Mono', Menlo, Consolas, monospace" font-size="21" font-weight="600" fill="#0A84FF" text-anchor="middle" dominant-baseline="central">&#960;</text>
<text x="988" y="406.0" font-size="15.5" font-weight="700" fill="#EDEDED">crash-analysis</text>
<text x="988" y="428.0" font-size="12" fill="#8E8E93">Found it: an unhandled promise rejecti...</text>
<g transform="translate(1292,412.0)"><circle r="18" fill="#0A84FF2b"/><g fill="none" stroke="#0A84FF" stroke-width="2.6" stroke-linecap="round" stroke-linejoin="round"><path d="M -6.5 6.5 Q -6.5 -3 3.5 -3"/><path d="M -0.5 -7.5 L 4.5 -3 L -0.5 1.5"/></g></g>
<rect x="904" y="461" width="422" height="78" rx="12" fill="#141416" stroke="#ffffff1a" stroke-width="1"/>
<g stroke="#FF453A" stroke-width="2.4" stroke-linecap="round"><line x1="924.5" y1="495.5" x2="933.5" y2="504.5"/><line x1="933.5" y1="495.5" x2="924.5" y2="504.5"/></g>
<g transform="translate(949.0,487.0) scale(1.3000)"><line x1="10" y1="10" x2="18.000" y2="10.000" stroke="#D97757" stroke-width="2.1" stroke-linecap="round"/><line x1="10" y1="10" x2="15.657" y2="15.657" stroke="#D97757" stroke-width="2.1" stroke-linecap="round"/><line x1="10" y1="10" x2="10.000" y2="18.000" stroke="#D97757" stroke-width="2.1" stroke-linecap="round"/><line x1="10" y1="10" x2="4.343" y2="15.657" stroke="#D97757" stroke-width="2.1" stroke-linecap="round"/><line x1="10" y1="10" x2="2.000" y2="10.000" stroke="#D97757" stroke-width="2.1" stroke-linecap="round"/><line x1="10" y1="10" x2="4.343" y2="4.343" stroke="#D97757" stroke-width="2.1" stroke-linecap="round"/><line x1="10" y1="10" x2="10.000" y2="2.000" stroke="#D97757" stroke-width="2.1" stroke-linecap="round"/><line x1="10" y1="10" x2="15.657" y2="4.343" stroke="#D97757" stroke-width="2.1" stroke-linecap="round"/></g>
<text x="988" y="494.0" font-size="15.5" font-weight="700" fill="#EDEDED">flaky-test-hunt</text>
<text x="988" y="516.0" font-size="12" fill="#8E8E93">Usage limit reached - resets in 42 min...</text>
<g transform="translate(1292,500.0)"><circle r="18" fill="#0A84FF2b"/><g fill="none" stroke="#0A84FF" stroke-width="2.6" stroke-linecap="round" stroke-linejoin="round"><path d="M -6.5 6.5 Q -6.5 -3 3.5 -3"/><path d="M -0.5 -7.5 L 4.5 -3 L -0.5 1.5"/></g></g>
<rect x="904" y="549" width="422" height="78" rx="12" fill="#141416" stroke="#ffffff1a" stroke-width="1"/>
<circle cx="929" cy="588.0" r="5" fill="#0A84FF"/>
<g transform="translate(949.0,575.0) scale(1.3000)"><rect x="1.5" y="3" width="17" height="14" rx="3" fill="none" stroke="#B5B5BA" stroke-width="1.6"/><path d="M 6 8 l 3 2.4 L 6 12.8" fill="none" stroke="#32D74B" stroke-width="1.6" stroke-linecap="round" stroke-linejoin="round"/><line x1="11" y1="13" x2="14.5" y2="13" stroke="#B5B5BA" stroke-width="1.6" stroke-linecap="round"/></g>
<text x="988" y="582.0" font-size="15.5" font-weight="700" fill="#EDEDED">release-notes</text>
<text x="988" y="604.0" font-size="12" fill="#8E8E93">Draft ready in RELEASE_NOTES.md - t...</text>
<g transform="translate(1292,588.0)"><circle r="18" fill="#0A84FF2b"/><g fill="none" stroke="#0A84FF" stroke-width="2.6" stroke-linecap="round" stroke-linejoin="round"><path d="M -6.5 6.5 Q -6.5 -3 3.5 -3"/><path d="M -0.5 -7.5 L 4.5 -3 L -0.5 1.5"/></g></g>
<rect x="904" y="637" width="422" height="78" rx="12" fill="#141416" stroke="#ffffff1a" stroke-width="1"/>
<text x="929" y="676.0" font-family="-apple-system, 'SF Pro Text', 'Helvetica Neue', 'Segoe UI', Arial, sans-serif" font-size="16" fill="#8E8E93" text-anchor="middle" dominant-baseline="central">&#10035;</text>
<g transform="translate(949.0,663.0) scale(1.3000)"><line x1="10" y1="10" x2="18.000" y2="10.000" stroke="#D97757" stroke-width="2.1" stroke-linecap="round"/><line x1="10" y1="10" x2="15.657" y2="15.657" stroke="#D97757" stroke-width="2.1" stroke-linecap="round"/><line x1="10" y1="10" x2="10.000" y2="18.000" stroke="#D97757" stroke-width="2.1" stroke-linecap="round"/><line x1="10" y1="10" x2="4.343" y2="15.657" stroke="#D97757" stroke-width="2.1" stroke-linecap="round"/><line x1="10" y1="10" x2="2.000" y2="10.000" stroke="#D97757" stroke-width="2.1" stroke-linecap="round"/><line x1="10" y1="10" x2="4.343" y2="4.343" stroke="#D97757" stroke-width="2.1" stroke-linecap="round"/><line x1="10" y1="10" x2="10.000" y2="2.000" stroke="#D97757" stroke-width="2.1" stroke-linecap="round"/><line x1="10" y1="10" x2="15.657" y2="4.343" stroke="#D97757" stroke-width="2.1" stroke-linecap="round"/></g>
<text x="988" y="670.0" font-size="15.5" font-weight="700" fill="#EDEDED">schema-migration</text>
<text x="988" y="692.0" font-size="12" fill="#8E8E93">migrate the users table to add a timez...</text>
<g transform="translate(1292,676.0)"><circle r="18" fill="#0A84FF2b"/><g fill="none" stroke="#0A84FF" stroke-width="2.6" stroke-linecap="round" stroke-linejoin="round"><path d="M -6.5 6.5 Q -6.5 -3 3.5 -3"/><path d="M -0.5 -7.5 L 4.5 -3 L -0.5 1.5"/></g></g>
<rect x="904" y="725" width="422" height="78" rx="12" fill="#141416" stroke="#ffffff1a" stroke-width="1"/>
<circle cx="929" cy="764.0" r="5" fill="#FF9F0A"/>
<g transform="translate(949.0,751.0) scale(1.3000)"><line x1="10" y1="10" x2="18.000" y2="10.000" stroke="#D97757" stroke-width="2.1" stroke-linecap="round"/><line x1="10" y1="10" x2="15.657" y2="15.657" stroke="#D97757" stroke-width="2.1" stroke-linecap="round"/><line x1="10" y1="10" x2="10.000" y2="18.000" stroke="#D97757" stroke-width="2.1" stroke-linecap="round"/><line x1="10" y1="10" x2="4.343" y2="15.657" stroke="#D97757" stroke-width="2.1" stroke-linecap="round"/><line x1="10" y1="10" x2="2.000" y2="10.000" stroke="#D97757" stroke-width="2.1" stroke-linecap="round"/><line x1="10" y1="10" x2="4.343" y2="4.343" stroke="#D97757" stroke-width="2.1" stroke-linecap="round"/><line x1="10" y1="10" x2="10.000" y2="2.000" stroke="#D97757" stroke-width="2.1" stroke-linecap="round"/><line x1="10" y1="10" x2="15.657" y2="4.343" stroke="#D97757" stroke-width="2.1" stroke-linecap="round"/></g>
<text x="988" y="758.0" font-size="15.5" font-weight="700" fill="#EDEDED">fix-auth-token-expiry</text>
<text x="988" y="780.0" font-size="12" fill="#8E8E93">The expiry check uses &lt; where it shoul...</text>
<g transform="translate(1292,764.0)"><circle r="18" fill="#0A84FF2b"/><g fill="none" stroke="#0A84FF" stroke-width="2.6" stroke-linecap="round" stroke-linejoin="round"><path d="M -6.5 6.5 Q -6.5 -3 3.5 -3"/><path d="M -0.5 -7.5 L 4.5 -3 L -0.5 1.5"/></g></g>
<text x="910" y="829" font-size="13" fill="#6E6E73">Hidden (0)</text>
<rect x="997.0" y="927" width="236" height="62" rx="31" fill="#232326" stroke="#ffffff14" stroke-width="1"/>
<rect x="1002.0" y="932" width="112" height="52" rx="26" fill="#3c3c40"/>
<g stroke="#0A84FF" stroke-width="2.4" stroke-linecap="round"><line x1="1052.0" y1="943" x2="1069.0" y2="943"/><line x1="1052.0" y1="949" x2="1069.0" y2="949"/><line x1="1052.0" y1="955" x2="1069.0" y2="955"/></g>
<g fill="#0A84FF"><circle cx="1047.0" cy="943" r="1.5"/><circle cx="1047.0" cy="949" r="1.5"/><circle cx="1047.0" cy="955" r="1.5"/></g>
<text x="1058.0" y="975" font-size="12" font-weight="600" fill="#0A84FF" text-anchor="middle">Sessions</text>
<g stroke="#ffffff" stroke-width="2.6" stroke-linecap="round" fill="none"><circle cx="1171.0" cy="949" r="4.6"/><line x1="1175.80" y1="950.99" x2="1178.76" y2="952.21"/><line x1="1172.99" y1="953.80" x2="1174.21" y2="956.76"/><line x1="1169.01" y1="953.80" x2="1167.79" y2="956.76"/><line x1="1166.20" y1="950.99" x2="1163.24" y2="952.21"/><line x1="1166.20" y1="947.01" x2="1163.24" y2="945.79"/><line x1="1169.01" y1="944.20" x2="1167.79" y2="941.24"/><line x1="1172.99" y1="944.20" x2="1174.21" y2="941.24"/><line x1="1175.80" y1="947.01" x2="1178.76" y2="945.79"/></g>
<circle cx="1171.0" cy="949" r="1.8" fill="#ffffff"/>
<text x="1171.0" y="975" font-size="12" font-weight="600" fill="#ffffff" text-anchor="middle">Settings</text>
<rect x="1051.0" y="1001" width="128" height="5" rx="2.5" fill="#ffffff8c"/>
</svg>